{
  "accessors": [
    {
      "bufferView": 2,
      "componentType": 5126,
      "count": 210,
      "max": [
        2.0,
        0.5762767195701599,
        2.0299999713897705
      ],
      "min": [
        -2.0,
        -0.5762767195701599,
        0.0
      ],
      "type": "VEC3"
    },
    {
      "bufferView": 2,
      "byteOffset": 2520,
      "componentType": 5126,
      "count": 210,
      "max": [
        1.0,
        1.0,
        1.0
      ],
      "min": [
        -1.0,
        -1.0,
        -1.0
      ],
      "type": "VEC3"
    },
    {
      "bufferView": 3,
      "componentType": 5126,
      "count": 210,
      "max": [
        6.57020734706748e-07,
        1.0,
        0.7831456065177917,
        1.0
      ],
      "min": [
        -0.9998531937599182,
        -0.9989837408065796,
        -0.7838895916938782,
        1.0
      ],
      "type": "VEC4"
    },
    {
      "bufferView": 1,
      "componentType": 5126,
      "count": 210,
      "max": [
        0.975831151008606,
        0.8436969518661499
      ],
      "min": [
        0.025716662406921387,
        0.08129215240478516
      ],
      "type": "VEC2"
    },
    {
      "bufferView": 0,
      "componentType": 5125,
      "count": 378,
      "type": "SCALAR"
    },
    {
      "bufferView": 2,
      "byteOffset": 5040,
      "componentType": 5126,
      "count": 210,
      "max": [
        2.0,
        0.5762767195701599,
        2.0299999713897705
      ],
      "min": [
        -2.0,
        -0.5762767195701599,
        0.0
      ],
      "type": "VEC3"
    },
    {
      "bufferView": 2,
      "byteOffset": 7560,
      "componentType": 5126,
      "count": 210,
      "max": [
        1.0,
        1.0,
        1.0
      ],
      "min": [
        -1.0,
        -1.0,
        -1.0
      ],
      "type": "VEC3"
    },
    {
      "bufferView": 3,
      "byteOffset": 3360,
      "componentType": 5126,
      "count": 210,
      "max": [
        6.57020734706748e-07,
        1.0,
        0.7831456065177917,
        1.0
      ],
      "min": [
        -0.9998531937599182,
        -0.9989837408065796,
        -0.7838895916938782,
        1.0
      ],
      "type": "VEC4"
    },
    {
      "bufferView": 1,
      "byteOffset": 1680,
      "componentType": 5126,
      "count": 210,
      "max": [
        0.975831151008606,
        0.8436969518661499
      ],
      "min": [
        0.025716662406921387,
        0.08129215240478516
      ],
      "type": "VEC2"
    },
    {
      "bufferView": 0,
      "byteOffset": 1512,
      "componentType": 5125,
      "count": 378,
      "type": "SCALAR"
    }
  ],
  "asset": {
    "extras": {
      "author": "Erroratten (https://sketchfab.com/erroratten)",
      "license": "CC-BY-4.0 (http://creativecommons.org/licenses/by/4.0/)",
      "source": "https://sketchfab.com/3d-models/concrete-barrier-afaab6285c484c36aab250e06727d471",
      "title": "Concrete Barrier"
    },
    "generator": "Sketchfab-12.70.0",
    "version": "2.0"
  },
  "bufferViews": [
    {
      "buffer": 0,
      "byteLength": 3024,
      "name": "floatBufferViews",
      "target": 34963
    },
    {
      "buffer": 0,
      "byteLength": 3360,
      "byteOffset": 3024,
      "byteStride": 8,
      "name": "floatBufferViews",
      "target": 34962
    },
    {
      "buffer": 0,
      "byteLength": 10080,
      "byteOffset": 6384,
      "byteStride": 12,
      "name": "floatBufferViews",
      "target": 34962
    },
    {
      "buffer": 0,
      "byteLength": 6720,
      "byteOffset": 16464,
      "byteStride": 16,
      "name": "floatBufferViews",
      "target": 34962
    }
  ],
  "buffers": [
    {
      "byteLength": 23184,
      "uri": "scene.bin"
    }
  ],
  "extensionsRequired": [
    "KHR_materials_pbrSpecularGlossiness"
  ],
  "extensionsUsed": [
    "KHR_materials_pbrSpecularGlossiness"
  ],
  "images": [
    {
      "uri": "textures/Barrier_diffuse.jpeg"
    },
    {
      "uri": "textures/Barrier_normal.jpeg"
    },
    {
      "uri": "textures/Barrier_occlusion.png"
    },
    {
      "uri": "textures/Barrier_yellow_diffuse.jpeg"
    }
  ],
  "materials": [
    {
      "doubleSided": true,
      "extensions": {
        "KHR_materials_pbrSpecularGlossiness": {
          "diffuseFactor": [
            1.0,
            1.0,
            1.0,
            1.0
          ],
          "diffuseTexture": {
            "index": 0
          },
          "glossinessFactor": 0.1788854381999832,
          "specularFactor": [
            0.0,
            0.0,
            0.0
          ]
        }
      },
      "name": "Barrier",
      "normalTexture": {
        "index": 1
      },
      "occlusionTexture": {
        "index": 2
      }
    },
    {
      "doubleSided": true,
      "extensions": {
        "KHR_materials_pbrSpecularGlossiness": {
          "diffuseFactor": [
            1.0,
            1.0,
            1.0,
            1.0
          ],
          "diffuseTexture": {
            "index": 3
          },
          "glossinessFactor": 0.1788854381999832,
          "specularFactor": [
            0.0,
            0.0,
            0.0
          ]
        }
      },
      "name": "Barrier_yellow",
      "normalTexture": {
        "index": 1
      },
      "occlusionTexture": {
        "index": 2
      }
    }
  ],
  "meshes": [
    {
      "name": "Barrel_orange_Barrier_0",
      "primitives": [
        {
          "attributes": {
            "NORMAL": 1,
            "POSITION": 0,
            "TANGENT": 2,
            "TEXCOORD_0": 3
          },
          "indices": 4,
          "material": 0,
          "mode": 4
        }
      ]
    },
    {
      "name": "Barrel_yellow_Barrier_yellow_0",
      "primitives": [
        {
          "attributes": {
            "NORMAL": 6,
            "POSITION": 5,
            "TANGENT": 7,
            "TEXCOORD_0": 8
          },
          "indices": 9,
          "material": 1,
          "mode": 4
        }
      ]
    }
  ],
  "nodes": [
    {
      "children": [
        1
      ],
      "matrix": [
        1.0,
        0.0,
        0.0,
        0.0,
        0.0,
        2.220446049250313e-16,
        -1.0,
        0.0,
        0.0,
        1.0,
        2.220446049250313e-16,
        0.0,
        0.0,
        0.0,
        0.0,
        1.0
      ],
      "name": "Sketchfab_model"
    },
    {
      "children": [
        2
      ],
      "matrix": [
        0.009999999776482582,
        0.0,
        0.0,
        0.0,
        0.0,
        0.0,
        0.009999999776482582,
        0.0,
        0.0,
        -0.009999999776482582,
        0.0,
        0.0,
        0.0,
        0.0,
        0.0,
        1.0
      ],
      "name": "90b59974f3544585916b2dd35bec9827.fbx"
    },
    {
      "children": [
        3,
        5
      ],
      "name": "RootNode"
    },
    {
      "children": [
        4
      ],
      "matrix": [
        100.0,
        0.0,
        0.0,
        0.0,
        -0.0,
        -1.629206793918314e-05,
        -99.99999999999868,
        0.0,
        0.0,
        99.99999999999868,
        -1.629206793918314e-05,
        0.0,
        -300.0,
        0.0,
        0.0,
        1.0
      ],
      "name": "Barrel_orange"
    },
    {
      "mesh": 0,
      "name": "Barrel_orange_Barrier_0"
    },
    {
      "children": [
        6
      ],
      "matrix": [
        100.0,
        0.0,
        0.0,
        0.0,
        0.0,
        -1.629206793918314e-05,
        -99.99999999999868,
        0.0,
        0.0,
        99.99999999999868,
        -1.629206793918314e-05,
        0.0,
        300.0,
        0.0,
        0.0,
        1.0
      ],
      "name": "Barrel_yellow"
    },
    {
      "mesh": 1,
      "name": "Barrel_yellow_Barrier_yellow_0"
    }
  ],
  "samplers": [
    {
      "magFilter": 9729,
      "minFilter": 9987,
      "wrapS": 10497,
      "wrapT": 10497
    }
  ],
  "scene": 0,
  "scenes": [
    {
      "name": "Sketchfab_Scene",
      "nodes": [
        0
      ]
    }
  ],
  "textures": [
    {
      "sampler": 0,
      "source": 0
    },
    {
      "sampler": 0,
      "source": 1
    },
    {
      "sampler": 0,
      "source": 2
    },
    {
      "sampler": 0,
      "source": 3
    }
  ]
}
